<?xml version="1.0" encoding="UTF-8" standalone="no"?>
<!-- Created with Inkscape (http://www.inkscape.org/) -->
<svg
   xmlns:dc="http://purl.org/dc/elements/1.1/"
   xmlns:cc="http://web.resource.org/cc/"
   xmlns:rdf="http://www.w3.org/1999/02/22-rdf-syntax-ns#"
   xmlns:svg="http://www.w3.org/2000/svg"
   xmlns="http://www.w3.org/2000/svg"
   xmlns:sodipodi="http://inkscape.sourceforge.net/DTD/sodipodi-0.dtd"
   xmlns:inkscape="http://www.inkscape.org/namespaces/inkscape"
   version="1.0"
   width="1020pt"
   height="503pt"
   id="svg1384"
   sodipodi:version="0.32"
   inkscape:version="0.43"
   sodipodi:docname="kylenewgnu2.svg"
   sodipodi:docbase="/home/winkler/Desktop/gnu logo temp"
   inkscape:export-filename="/home/winkler/Desktop/gnu logo temp/kylenewgnu2.png"
   inkscape:export-xdpi="90"
   inkscape:export-ydpi="90">
  <metadata
     id="metadata10">
    <rdf:RDF>
      <cc:Work
         rdf:about="">
        <dc:format>image/svg+xml</dc:format>
        <dc:type
           rdf:resource="http://purl.org/dc/dcmitype/StillImage" />
      </cc:Work>
    </rdf:RDF>
  </metadata>
  <sodipodi:namedview
     inkscape:window-height="721"
     inkscape:window-width="1270"
     inkscape:pageshadow="2"
     inkscape:pageopacity="0.0"
     borderopacity="1.0"
     bordercolor="#666666"
     pagecolor="#ffffff"
     id="base"
     inkscape:zoom="0.037949097"
     inkscape:cx="568.79646"
     inkscape:cy="345.19925"
     inkscape:window-x="0"
     inkscape:window-y="25"
     inkscape:current-layer="svg1384" />
  <defs
     id="defs1386" />
  <g
     id="g2316">
    <rect
       y="1.2647244"
       x="1.6469532"
       height="627.48523"
       width="1274.7339"
       id="rect1319"
       style="fill:#ffffff;fill-opacity:1;fill-rule:evenodd;stroke:#000000;stroke-width:0;stroke-linecap:butt;stroke-linejoin:miter;stroke-miterlimit:4;stroke-dasharray:none;stroke-dashoffset:0;stroke-opacity:1" />
    <g
       transform="matrix(2.366264,0,0,1.833356,6.3409,3.41319)"
       id="g1380">
      <path
         id="path1382"
         d="M 112.993,304.37201 C 92.866983,331.79844 36.554383,313.11235 79.906816,284.73057 C 124.25353,227.47496 24.486329,238.91002 15.521353,188.64423 C -17.880365,128.26048 1.1167729,35.392851 70.755722,10.559623 C 113.45397,-15.298318 192.46778,10.000741 216.79632,28.277536 C 182.27507,68.271349 109.42588,13.273656 79.563221,71.166354 C 39.977737,105.98314 82.169499,195.71729 126.19677,139.2626 C 155.9873,106.0515 190.01959,48.067117 243.18975,70.176832 C 289.65053,107.77459 337.1768,37.334035 382.77617,86.995563 C 405.13412,111.76334 446.70124,193.54213 476.69627,131.235 C 492.5724,66.026123 418.71399,24.259351 363.35558,46.293118 C 310.03361,24.739816 405.76477,-0.74525653 431.55722,3.5095483 C 491.52338,7.9636446 539.01449,63.473243 535.38292,123.34334 C 536.32212,172.67392 505.95038,227.80034 453.851,236.086 C 496.04985,287.85663 406.33497,270.28824 382.86857,250.04233 C 365.85433,280.27284 437.38217,267.69266 419.38427,310.11459 C 416.31103,335.24896 381.42199,334.68111 406.10288,356.47728 C 392.92901,383.04644 387.45164,411.91256 356.49698,414.59595 C 346.66686,436.26688 358.11528,455.53504 336.95924,470.06098 C 328.52477,494.84667 372.24765,481.285 356.7563,498.01717 C 400.75978,474.90343 323.45235,525.92037 366.38,514.067 C 339.65294,525.39435 315.04317,504.1961 327.32084,521.81904 C 306.39907,516.96972 295.51651,511.46644 304.96287,522.96759 C 287.90635,524.46881 259.17442,473.82244 271.382,513.316 C 249.65679,496.96809 277.46289,458.72326 245.45,449.22 C 268.71042,460.17172 240.7007,482.8334 233.82755,492.76843 C 237.73814,470.81707 246.28395,452.4626 218.11939,442.89989 C 223.06816,407.96147 188.57671,391.8732 177.5815,360.64019 C 147.99663,350.12567 167.52432,253.64295 124.58597,306.76987 C 106.89358,356.56434 134.13072,413.37575 170.20499,448.58084 C 199.34353,479.13568 133.46154,423.78027 131.45303,408.2063 C 113.68676,376.98463 108.32247,339.72539 112.993,304.37201 z M 311.70099,292.07999 C 339.24392,295.37043 341.7006,347.32536 323.09744,303.2826 C 305.19681,317.92504 286.9117,292.01488 311.70099,292.07999 z M 275.629,286 C 280.53206,233.20732 363.17515,290.14327 358.62572,294.43855 C 349.18393,274.08039 275.16024,265.82041 294.12706,280.3373 C 318.85574,275.00294 279.45178,297.62306 279.8995,300.56481 L 277.90398,294.9654 L 275.629,286 L 275.629,286 z M 280.44901,232.53999 C 298.44656,203.19439 265.47439,255.37417 280.44901,232.53999 z M 231.298,303.90799 C 265.11661,290.18116 221.42863,323.99741 231.298,303.90799 z M 268.789,155.688 C 297.58726,149.87213 311.58144,239.82551 290.78491,181.2181 C 284.28656,171.99477 275.24486,164.94817 268.789,155.688 z M 251.688,197.457 C 289.99537,196.75496 240.49295,163.95857 229.437,189.236 C 252.92991,155.85868 294.7106,200.91068 262.69804,220.52231 C 248.45525,220.75195 225.30857,200.38417 249.03274,227.05467 C 271.53657,230.45074 289.18801,215.89614 254.6138,227.62878 C 223.97638,233.1346 214.60221,195.07139 251.688,197.457 z M 214.827,168.95599 C 195.06633,179.07487 167.22819,214.24249 194.75988,174.50707 C 207.30645,151.63667 257.00582,145.06563 223.7562,179.42936 C 204.08573,194.09733 216.26084,181.39747 214.827,168.95599 L 214.827,168.95599 z M 349.86499,204.463 C 334.22667,202.58842 351.45863,222.17521 349.86499,204.463 z M 339.44501,200.61301 C 404.42838,203.99671 337.7031,141.03596 340.73158,122.03089 C 328.68625,102.14441 303.23274,75.517768 346.43039,85.937502 C 398.12218,93.978374 419.81514,203.07113 475.54019,161.28619 C 498.9092,126.38913 493.07911,58.375691 449.64934,39.925718 C 429.15112,23.600663 392.81925,29.623304 374.53251,29.806413 C 409.43729,8.6356994 460.28052,18.524048 488.12047,48.037888 C 518.31912,82.800949 509.26877,130.81582 503.6142,166.26334 C 499.47571,180.23367 476.76473,213.16478 477.57569,202.55259 C 466.61005,200.5326 463.98731,218.78623 456.76734,205.03497 C 455.80885,225.98169 435.68516,199.38302 453.13495,225.61481 C 500.47365,234.4049 531.6144,166.5275 530.41197,124.0824 C 534.06347,59.934364 475.46289,-5.3401529 408.70288,8.8153585 C 385.97984,6.4283379 322.96783,43.106207 376.16475,40.012173 C 431.99482,25.616654 497.85252,67.67857 479.16924,129.83721 C 454.04117,201.84562 405.12542,118.1837 380.48682,91.020379 C 360.70079,56.072061 270.69335,71.449102 327.35322,105.87791 C 354.24717,131.58244 310.56337,146.78537 322.49231,167.08929 C 304.47678,176.55843 276.99022,110.0421 241.68567,140.96161 C 182.68557,132.9696 113.43878,164.24762 105.77443,229.04885 C 102.33096,256.50769 73.658637,308.55322 76.214807,310.6415 C 128.10995,296.26006 191.20325,272.46538 197.58358,210.22247 C 197.52286,205.99765 194.10575,270.4176 200.76478,272.49571 C 172.58787,229.14796 144.78011,319.8996 172.32115,341.37907 C 201.05576,367.93784 196.39071,394.54958 230.90106,418.18694 C 230.03729,442.79383 233.235,453.23647 242.32059,422.0917 C 255.07053,406.17133 254.44495,436.76243 267.5462,440.75383 C 266.68982,449.39646 304.58185,519.81014 295.68334,480.06281 C 311.64784,466.53216 334.93224,429.93175 330.64453,461.34619 C 367.39931,452.24048 338.47536,399.9618 309.97971,418.87095 C 294.37159,396.74557 424.02799,416.48988 366.67035,377.00554 C 319.41355,384.77799 268.69931,381.44015 257.37116,326.32566 C 238.48494,306.04322 283.29798,344.58799 276.03714,322.25331 C 256.66814,392.61327 387.78475,383.20388 397.66038,350.18809 C 372.68958,340.78809 361.86784,343.30993 393.77168,332.52096 C 432.14974,314.19754 405.79213,270.58022 377.29975,269.57406 C 359.65408,241.61504 306.27391,182.67291 350.88161,163.08094 C 371.00004,198.41086 339.32481,163.16201 339.44501,200.61301 z M 367.16,197.306 C 394.74854,209.60382 327.04482,230.64664 371.50886,220.14719 C 371.28128,247.46294 436.09046,280.22966 457.95262,257.03787 C 426.68771,219.86025 421.06981,146.65549 362.52683,142.80332 C 352.01594,156.01819 392.63761,183.25203 367.16,197.306 z M 368.314,226.935 C 351.41236,251.30633 392.39825,271.90992 369.46331,230.86028 L 368.68802,228.21242 L 368.314,226.935 z M 279.229,113.611 C 269.16816,144.78212 331.8264,196.27844 320.55605,140.1735 C 359.98376,111.30293 269.5355,70.470593 313.16673,119.86731 C 326.0566,149.36349 286.34463,83.079608 262.23887,83.832192 C 212.03652,42.55493 160.08653,100.27527 132.00559,139.52056 C 98.0905,202.48196 28.370497,121.19742 69.007131,78.074266 C 87.719245,16.267821 191.38518,51.498156 207.18255,26.271291 C 167.43709,13.027307 127.03843,-7.0809447 84.211357,11.246286 C 25.527783,27.057505 -8.8414898,92.412231 6.8474554,150.23412 C 15.163437,193.23096 48.834427,235.15809 95.03,237.9 C 99.92765,225.91296 102.3566,200.28436 90.099998,226.28999 C 101.54991,198.97316 70.969766,229.96595 76.072917,204.99964 C 69.747016,228.40712 52.833598,186.79059 52.057241,196.2989 C 30.596338,185.47352 35.238088,158.95747 29.835745,142.54486 C 25.187874,107.40922 28.60728,47.933192 69.8286,34.023257 C 101.37893,10.649552 149.80834,7.8355851 182.83294,31.718672 C 152.99936,16.169367 103.83748,26.087943 76.20531,50.275146 C 43.493573,83.520001 39.069513,153.95534 83.254598,178.1547 C 138.44491,175.05968 158.1056,105.81825 207.54388,87.828585 C 231.56684,77.311051 270.43662,89.034551 279.229,113.611 z "
         style="fill-rule:evenodd" />
    </g>
    <rect
       y="274.43567"
       x="428.31216"
       height="664.45825"
       width="234.55217"
       id="rect1394"
       style="fill:#ffffff;fill-opacity:1" />
    <rect
       y="448.3674"
       x="97.921432"
       height="402.58353"
       width="393.44232"
       id="rect1398"
       style="fill:#ffffff;fill-opacity:1" />
    <rect
       y="262.00391"
       x="778.87915"
       height="719.88434"
       width="88.272316"
       id="rect1402"
       style="fill:#ffffff;fill-opacity:1" />
    <rect
       y="292.02426"
       x="612.42297"
       height="674.22968"
       width="126.10331"
       id="rect1408"
       style="fill:#ffffff;fill-opacity:1" />
    <rect
       y="434.68735"
       x="703.21729"
       height="553.06378"
       width="459.01605"
       id="rect1410"
       style="fill:#ffffff;fill-opacity:1" />
    <rect
       y="286.16144"
       x="819.23242"
       height="435.80643"
       width="100.88265"
       id="rect1412"
       style="fill:#ffffff;fill-opacity:1" />
    <rect
       y="31.50259"
       x="911.0976"
       height="37.145641"
       width="48.712711"
       id="rect1444"
       style="fill:#ffffff;fill-opacity:1"
       transform="matrix(0.966549,0.256482,-0.431135,0.902287,0,0)" />
    <rect
       y="261.44962"
       x="684.26727"
       height="390.3255"
       width="101.27467"
       id="rect1466"
       style="fill:#ffffff;fill-opacity:1" />
    <rect
       transform="matrix(0.848749,-0.528795,0.432949,0.901419,0,0)"
       y="601.93597"
       x="538.88306"
       height="265.20233"
       width="91.943703"
       id="rect1322"
       style="fill:#ffffff;fill-opacity:1;fill-rule:evenodd;stroke:#000000;stroke-width:0;stroke-linecap:butt;stroke-linejoin:miter;stroke-miterlimit:4;stroke-dasharray:none;stroke-dashoffset:0;stroke-opacity:1" />
    <rect
       transform="matrix(0.758477,-0.6517,0.662106,0.74941,0,0)"
       y="603.62079"
       x="415.72263"
       height="79.678062"
       width="40.651669"
       id="rect2197"
       style="fill:#ffffff;fill-opacity:1;fill-rule:evenodd;stroke:#000000;stroke-width:0;stroke-linecap:butt;stroke-linejoin:miter;stroke-miterlimit:4;stroke-dasharray:none;stroke-dashoffset:0;stroke-opacity:1" />
    <rect
       style="fill:#ffffff;fill-opacity:1;fill-rule:evenodd;stroke:#000000;stroke-width:0;stroke-linecap:butt;stroke-linejoin:miter;stroke-miterlimit:4;stroke-dasharray:none;stroke-dashoffset:0;stroke-opacity:1"
       id="rect2199"
       width="49.222019"
       height="96.827713"
       x="387.62402"
       y="590.00952"
       transform="matrix(0.749836,-0.661624,0.652186,0.758059,0,0)" />
    <rect
       y="159.33917"
       x="642.30774"
       height="23.057201"
       width="100.0518"
       id="rect2201"
       style="fill:#ffffff;fill-opacity:1;fill-rule:evenodd;stroke:#000000;stroke-width:0;stroke-linecap:butt;stroke-linejoin:miter;stroke-miterlimit:4;stroke-dasharray:none;stroke-dashoffset:0;stroke-opacity:1" />
    <rect
       style="fill:#ffffff;fill-opacity:1;fill-rule:evenodd;stroke:#000000;stroke-width:0;stroke-linecap:butt;stroke-linejoin:miter;stroke-miterlimit:4;stroke-dasharray:none;stroke-dashoffset:0;stroke-opacity:1"
       id="rect2203"
       width="100.0518"
       height="27.586294"
       x="637.36688"
       y="266.39044" />
    <rect
       transform="matrix(0.982287,-0.187382,0.187382,0.982287,0,0)"
       y="283.73621"
       x="616.47974"
       height="27.586351"
       width="100.052"
       id="rect2205"
       style="fill:#ffffff;fill-opacity:1;fill-rule:evenodd;stroke:#000000;stroke-width:0;stroke-linecap:butt;stroke-linejoin:miter;stroke-miterlimit:4;stroke-dasharray:none;stroke-dashoffset:0;stroke-opacity:1" />
    <path
       style="fill:#000000;fill-opacity:1;fill-rule:nonzero;stroke:none;stroke-width:1px;stroke-linecap:butt;stroke-linejoin:miter;stroke-opacity:1"
       d="M 496.19497,342.17603 C 446.56038,320.83926 383.76504,338.93475 353.42209,381.35273 C 328.39667,413.35395 318.60856,460.27953 341.93805,495.42202 C 364.14968,522.87475 405.49327,522.555 437.99509,515.90269 C 458.49149,514.27142 483.22312,497.43059 472.57519,475.84131 C 464.08876,451.59016 438.66494,436.91193 413.54488,431.58574 C 406.32588,422.57219 404.78043,400.14726 409.0914,394.78152 C 452.5469,392.55475 490.95702,423.47767 508.91687,458.83132 C 521.08141,485.2308 514.58978,520.92583 486.5557,535.89511 C 452.94146,556.26514 410.40856,558.00014 371.97756,552.51519 C 333.4316,545.23427 299.80099,515.71062 294.30553,478.16469 C 275.90782,395.41822 344.43178,306.63162 433.28329,297.39152 C 455.80893,294.13804 478.21919,299.08218 500.40372,301.34714 C 526.10668,307.03148 500.0674,329.05976 496.19497,342.17603 L 496.19497,342.17603 z "
       id="path2415" />
    <path
       style="fill:#000000;fill-opacity:1;fill-rule:nonzero;stroke:none;stroke-width:1px;stroke-linecap:butt;stroke-linejoin:miter;stroke-opacity:1"
       d="M 329.27884,592.10378 C 463.65532,580.57745 598.32457,570.67044 733.35465,569.39494 C 811.13758,567.9191 888.94092,567.68854 966.73813,567.76508 C 968.54028,581.61601 968.48981,605.50775 945.51026,596.00041 C 743.47401,591.20635 539.64562,593.81572 340.57217,628.91586 C 336.80773,616.64517 333.04329,604.37447 329.27884,592.10378 z "
       id="path1307" />
    <path
       style="fill:#000000;fill-opacity:1;fill-rule:nonzero;stroke:none;stroke-width:1px;stroke-linecap:butt;stroke-linejoin:miter;stroke-opacity:1"
       d="M 912.32993,304.94974 C 911.5074,356.14405 909.92436,408.03158 896.43601,457.94668 C 890.80093,480.09654 877.11775,504.22481 850.66272,509.3714 C 824.73504,510.0715 819.27015,480.1484 820.32402,461.58947 C 821.54067,431.86286 825.58476,402.29134 825.96027,372.5161 C 827.12206,349.52514 828.27828,326.44846 832.61529,303.73697 C 820.08282,295.56139 792.75692,294.69627 784.21644,299.81648 C 777.67917,352.13398 779.61849,404.93947 773.61257,457.27873 C 771.05208,489.12036 782.32305,527.02715 816.13104,541.8428 C 847.75768,553.40377 886.56807,545.99184 909.87054,522.99687 C 939.48173,498.13097 945.6494,459.36224 951.78124,424.87994 C 956.31098,388.98527 957.96789,352.77804 960.35823,316.77203 C 954.16666,299.72426 926.83563,310.11795 912.32993,304.94974 z "
       id="path2419" />
    <path
       id="path1393"
       d="M 544.20221,537.65839 C 546.75428,512.97428 543.66182,488.10889 546.09233,463.40049 C 546.70225,440.39053 547.39826,417.21987 552.82703,394.73998 C 556.10085,372.75911 556.07316,350.42982 556.94983,328.28521 C 553.73972,315.85371 555.63207,295.05349 573.27926,297.54945 C 591.436,299.90846 606.23582,313.79586 612.80258,330.46312 C 636.97979,381.21152 667.81852,428.41438 693.88096,478.17346 C 702.70589,493.56284 713.36901,507.82101 721.13038,523.78552 C 730.26242,533.47386 725.27204,549.58374 710.37329,545.50631 C 694.25026,544.81699 687.09677,527.70411 691.56835,513.75513 C 693.58604,493.74953 693.90876,473.53876 694.63913,453.41727 C 694.66853,431.12428 693.47698,408.83412 695.14637,386.55928 C 696.32269,363.14972 697.90403,339.68055 698.63452,316.32082 C 695.22011,304.91286 703.02289,298.01048 713.76391,301.68448 C 723.72519,302.17167 733.68648,302.65885 743.64776,303.14604 C 741.56764,352.67641 737.42018,402.16624 738.3228,451.77448 C 737.68139,478.01531 736.09421,504.27382 733.86098,530.40396 C 728.27916,550.47818 698.79057,554.67799 685.6602,539.64477 C 676.92856,529.20461 674.49553,515.07123 665.81339,504.51228 C 641.37219,466.42712 622.51253,425.16466 600.36127,385.76661 C 588.40676,363.13798 575.36738,341.03539 563.88086,318.19261 C 557.77689,306.66497 566.3653,290.56481 580.29761,294.36717 C 591.56585,295.90785 602.82163,306.47965 600.23426,318.56721 C 602.47675,342.26048 599.52644,366.05145 598.08564,389.68655 C 594.78292,409.67917 589.88866,429.54108 590.09639,449.93391 C 587.87442,479.14834 589.08725,508.54395 589.16093,537.71742 C 578.15936,542.79976 561.96688,536.66253 549.13078,537.89944 L 546.6665,537.77892 L 544.20222,537.6584 L 544.20221,537.65839 z "
       style="fill:#000000;fill-opacity:1;fill-rule:nonzero;stroke:none;stroke-width:1px;stroke-linecap:butt;stroke-linejoin:miter;stroke-opacity:1" />
  </g>
</svg>
